<svg id="Capa_1" enable-background="new 0 0 512 512" height="512" viewBox="0 0 512 512" width="512" xmlns="http://www.w3.org/2000/svg"><g><g><path d="m512 236.536c0-10.474-8.521-18.995-18.994-18.995h-17.296v-198.575c0-10.458-8.508-18.966-18.966-18.966h-173.93c-5.522 0-10 4.477-10 10s4.478 10 10 10h172.896v197.541h-20.676l-68.668-75.521c-.002-.002-.004-.003-.005-.005-.001-.001-.002-.002-.002-.003-10.602-11.633-21.072-14.075-27.989-14.075-6.918 0-17.389 2.442-27.998 14.083l-27.926 30.707-65.718-72.242c-10.504-11.563-22.528-17.678-34.771-17.683-.005 0-.01 0-.015 0-12.245 0-24.28 6.112-34.803 17.678l-127.139 139.785v-220.265h172.897c5.523 0 10-4.477 10-10s-4.477-10-10-10h-173.93c-10.458 0-18.967 8.508-18.967 18.966v238.197c0 4.851 1.84 9.268 4.839 12.629.157.188.323.369.497.547 3.451 3.58 8.281 5.819 13.631 5.819h198.575v216.848c0 4.957 1.924 9.461 5.045 12.847.085.093.165.19.255.28 3.459 3.608 8.314 5.867 13.695 5.867h198.102.009.011 58.348c5.382 0 10.238-2.26 13.697-5.87.084-.085.158-.176.239-.263 3.129-3.387 5.058-7.898 5.058-12.862v-256.469zm-20 237.803-46.6-56.043c-7.368-8.879-14.994-10.743-20.094-10.743 0 0 0 0-.001 0-5.1 0-12.726 1.864-20.085 10.731l-13.598 16.336-36.337-43.703c-8.98-10.825-18.1-13.103-24.168-13.106-.006 0-.011 0-.017 0-6.073 0-15.196 2.275-24.199 13.098l-69.361 83.429v-236.797h254.46zm-52.669 17.661-34.705-41.741 15.975-19.191c2.153-2.595 3.88-3.515 4.704-3.515s2.551.92 4.71 3.522l50.659 60.925zm-26.009 0h-164.456l73.414-88.304c3.158-3.796 6.291-5.886 8.822-5.886h.002c2.526.002 5.648 2.088 8.797 5.884zm-88.162-336.517c3.138-3.442 7.977-7.546 13.209-7.546 5.227 0 10.062 4.097 13.2 7.537l56.434 62.066h-84.79l-27.249-29.953zm-292.579 100.675 129.351-142.219c6.724-7.39 13.456-11.137 20.009-11.137h.007c6.548.002 13.269 3.748 19.98 11.136l94.247 103.604h-59.64c-10.474 0-18.995 8.521-18.995 18.995v19.622h-184.959z"/><path d="m396.847 292.987c-21.91 0-39.735 17.812-39.735 39.708 0 21.91 17.825 39.735 39.735 39.735 21.911 0 39.736-17.825 39.736-39.735 0-21.896-17.825-39.708-39.736-39.708zm0 59.443c-10.882 0-19.735-8.853-19.735-19.735 0-10.867 8.854-19.708 19.735-19.708 10.883 0 19.736 8.841 19.736 19.708 0 10.882-8.853 19.735-19.736 19.735z"/><path d="m286.814 122.854c22.098 0 40.076-17.978 40.076-40.076 0-22.114-17.979-40.104-40.076-40.104-22.113 0-40.104 17.991-40.104 40.104 0 22.098 17.99 40.076 40.104 40.076zm0-60.18c11.07 0 20.076 9.019 20.076 20.104 0 11.07-9.006 20.076-20.076 20.076-11.085 0-20.104-9.006-20.104-20.076-.001-11.085 9.019-20.104 20.104-20.104z"/><path d="m237.869 20h.028c5.523 0 9.986-4.477 9.986-10s-4.491-10-10.014-10-10 4.477-10 10 4.477 10 10 10z"/></g></g></svg>